<?xml version="1.0" encoding="utf-8"?>
<!-- Generator: Adobe Illustrator 24.2.3, SVG Export Plug-In . SVG Version: 6.00 Build 0)  -->
<svg version="1.1" id="Layer_1" xmlns="http://www.w3.org/2000/svg" xmlns:xlink="http://www.w3.org/1999/xlink" x="0px" y="0px"
	 viewBox="0 0 512 512" style="enable-background:new 0 0 512 512;" xml:space="preserve">
<style type="text/css">
	.st0{fill:#F4AA00;}
</style>
<path class="st0" d="M511.8,211.3v217.6c0,31-25.2,56.3-56.3,56.3H56.3c-31,0-56.3-25.2-56.3-56.3V148.6c0-31,25.2-56.3,56.3-56.3
	h247.5c5.3,0,9.6,4.3,9.6,9.6c0,5.3-4.3,9.6-9.6,9.6H56.3c-20.5,0-37.2,16.7-37.2,37.2v28.5l218.7,106.2c11.5,5.6,24.7,5.6,36.2,0
	l106.9-51.9c4.8-2.3,10.5-0.3,12.8,4.4c2.3,4.8,0.3,10.5-4.4,12.8l-106.9,51.9c-16.8,8.2-36.1,8.2-52.9,0L19.1,198.3v230.6
	c0,20.5,16.7,37.2,37.2,37.2h399.2c20.5,0,37.2-16.7,37.2-37.2V211.3c0-5.3,4.3-9.6,9.6-9.6C507.5,201.7,511.8,206,511.8,211.3
	L511.8,211.3z M149.3,322.3l-93.2,93.2c-6,6-1.7,16.3,6.8,16.3c2.4,0,4.9-0.9,6.8-2.8l93.2-93.2c3.7-3.7,3.7-9.8,0-13.5
	C159.1,318.6,153.1,318.6,149.3,322.3L149.3,322.3z M348.9,322.3c-3.7,3.7-3.7,9.8,0,13.5l93.2,93.2c1.9,1.9,4.3,2.8,6.8,2.8
	c8.4,0,12.8-10.3,6.8-16.3l-93.2-93.2C358.7,318.6,352.7,318.6,348.9,322.3L348.9,322.3z M512,111.7v14.7c0,28.8-37.2,40.8-54,17.2
	c-28.2,27.2-75.6,7.3-75.6-32.1c0-24.6,20-44.6,44.6-44.6c24.6,0,44.6,20,44.6,44.6v14.9c0,5.9,4.8,10.6,10.6,10.6
	s10.6-4.8,10.6-10.6c0-16.9,2.2-40.3-19.8-61.7c-40.5-39.6-110.2-12.4-111.6,45.4c-0.9,37,28.8,67.3,65.7,67.3
	c5.3,0,9.6,4.3,9.6,9.6c0,5.3-4.3,9.6-9.6,9.6c-47.7,0-85.9-39.2-84.8-86.9C344.1,37,432.9-1.2,486.4,51
	C502.9,67.1,512,88.7,512,111.7L512,111.7z M452.5,111.6c0-14.1-11.4-25.5-25.5-25.5c-14.1,0-25.5,11.4-25.5,25.5
	s11.4,25.5,25.5,25.5C441.1,137.1,452.5,125.6,452.5,111.6z"/>
</svg>
