<?xml version="1.0" encoding="utf-8"?>
<!-- Generator: Adobe Illustrator 24.2.1, SVG Export Plug-In . SVG Version: 6.00 Build 0)  -->
<svg version="1.1" id="Layer_1" xmlns="http://www.w3.org/2000/svg" xmlns:xlink="http://www.w3.org/1999/xlink" x="0px" y="0px"
	 viewBox="0 0 350 280" style="enable-background:new 0 0 350 280;" xml:space="preserve">
<style type="text/css">
	.st0{fill:#F4AA00;}
	.st1{fill:none;}
</style>
<g>
	<g>
		<path class="st0" d="M135.93,35.62L135.93,35.62l0-0.02l-35.22-3.56l16.24,63.69L135.93,35.62z M131.35,38.65l-14.33,44.99
			l-11.51-47.61L131.35,38.65z"/>
		<path class="st0" d="M123.75,110.52l1.57-0.15l-8.8-12.26l-16.09-62.89l-0.09-0.06l0.06,0l-0.86-3.39l-2.99,0.01l-1.45,0
			c-0.02,0-0.05-0.01-0.07-0.01c-0.02,0-0.05,0.01-0.07,0.01c-1.2,0.03-2.23,0.77-2.67,1.81l-0.01,0.03l-29.01,77.71l-0.33,0.88
			c-0.14,0.51-0.23,1.05-0.22,1.61c0,0.91,0.22,1.77,0.59,2.54l10.92-1.06L123.75,110.52z M68.07,107.99l26.29-70.32l0.93-2.49
			l1.89,0l0.32,1.28l15.69,63.19l6.44,7.99l-45.39,4.74l-8.12,0.85L68.07,107.99z"/>
		<path class="st0" d="M151.56,153.2l-2.6-3.86l-22.14-36.05l-1.21-1.94l-0.01,0l-0.03-0.04l-0.04,0.05l-51.69,4.98l-5.25,0.44
			l-0.03-0.02l-4.8,0.42c0.39,0.55,0.86,1.03,1.41,1.42l0.32,0.21l2.19,1.44l0.03,0l75.92,49.74l0.72,0.47
			c0.49,0.24,1.03,0.38,1.61,0.38c1.7,0,3.12-1.19,3.49-2.77l0.09-0.65l1.25-8.84l0.02,0.04l0.74-5.14l-0.03-0.05L151.56,153.2z
			 M146.6,163.69l-0.63,3.82l-3.14-2.06l-69.65-45.68l50.65-4.92l24.32,39.49L146.6,163.69z"/>
		<path class="st0" d="M232.48,95.73l16.24-63.69L213.5,35.6l0.01,0.02l-0.01,0L232.48,95.73z M243.92,36.03l-11.51,47.61
			l-14.33-44.99L243.92,36.03z"/>
		<path class="st0" d="M286.49,112.23l-0.33-0.88l-29.01-77.71l-0.01-0.03c-0.44-1.05-1.47-1.78-2.67-1.81
			c-0.02,0-0.05-0.01-0.07-0.01c-0.02,0-0.05,0.01-0.07,0.01l-1.45,0l-2.99-0.01l-0.86,3.39l0.06,0l-0.09,0.06L232.9,98.11
			l-8.8,12.26l1.57,0.15l49.53,4.79l10.92,1.06c0.37-0.77,0.59-1.63,0.59-2.54C286.72,113.27,286.64,112.74,286.49,112.23z
			 M275.19,112.37l-45.39-4.74l6.44-7.99l15.69-63.19l0.32-1.28l1.89,0l0.93,2.49l26.29,70.32l1.96,5.23L275.19,112.37z"/>
		<path class="st0" d="M280.82,116.78l-5.25-0.44l-51.69-4.98l-0.04-0.05l-0.03,0.04l-0.01,0l-1.21,1.94l-22.14,36.05l-2.6,3.86
			l0.03,0.23l-0.03,0.05l0.74,5.14l0.02-0.04l1.25,8.84l0.09,0.65c0.38,1.58,1.79,2.77,3.49,2.77c0.58,0,1.12-0.14,1.61-0.38
			l0.72-0.47l75.92-49.74l0.03,0l2.19-1.44l0.32-0.21c0.55-0.39,1.03-0.87,1.41-1.42l-4.8-0.42L280.82,116.78z M206.59,165.46
			l-3.14,2.06l-0.63-3.82l-1.54-9.35l24.32-39.49l50.65,4.92L206.59,165.46z"/>
		<path class="st0" d="M228.1,102.23c1.24-2.14,1.96-4.63,1.96-7.28c0-1.03-0.1-2.03-0.3-3l-0.89-2.82L214.1,42.26l-0.39-1.55
			l-0.24,0l-0.43,0l-0.24,0l-37.91-0.09l-0.2,0l-0.2,0l-37.91,0.09l-0.24,0l-0.43,0l-0.24,0l-0.39,1.55l-14.76,46.88l-0.89,2.82
			c-0.2,0.97-0.3,1.97-0.3,3c0.01,2.65,0.72,5.14,1.96,7.28l0.65,1.02l31.6,49.86l5.83,47.37l14.05,11.19l0.01-0.01
			c0.35,0.28,0.78,0.46,1.25,0.51c0.47-0.04,0.9-0.22,1.25-0.51l0.01,0.01l14.05-11.19l5.83-47.37l31.6-49.86L228.1,102.23z
			 M173.17,167.69l1.5,0.87l1.5-0.87l5.52-3.19l2.81,36.05l-9.78,7.91l-9.36-7.57l2.4-36.33L173.17,167.69z M167.96,161.22l0.43-7
			l6.28,3.62l6.28-3.62l0.5,6.96l-6.78,3.91L167.96,161.22z M224.51,101.35c-0.39,0.75-0.84,1.45-1.34,2.12l-3.45,5.44l-26.79,42.61
			l-0.11-0.06l-0.04,0.3l-0.04,0.07l0.03,0.02l-5.58,44.73l-2.62-33.74l-0.24-3.33l-0.4-5.51l-0.34-4.78l-4.15,2.39l-4.78,2.76
			l-4.78-2.76l-4.2-2.42l-0.3,4.84l-0.34,5.51l-0.21,3.35l-2.37,35.68l0,0l-5.83-46.73l0.03-0.02l-0.04-0.07l-0.04-0.3l-0.11,0.06
			l-26.79-42.61l-3.45-5.44c-0.51-0.66-0.95-1.37-1.34-2.12c-1.04-2.01-1.64-4.29-1.65-6.71c0-0.8,0.06-1.59,0.18-2.35l1.18-3.85
			l1.86-6.09l11.65-38.11l0.66,0l35.9-0.09l35.9,0.09l0.66,0l11.65,38.11l1.86,6.09l1.18,3.85c0.12,0.77,0.19,1.55,0.18,2.35
			C226.15,97.06,225.55,99.34,224.51,101.35z"/>
	</g>
	<path class="st1" d="M122.14,227.9c0.26-0.35,0.4-0.73,0.41-1.14c0-0.84-0.42-1.44-1.26-1.79c-0.5-0.21-1.03-0.31-1.61-0.31
		l-8.11,0.02l0.01,4.18l8.13-0.02C120.87,228.83,121.68,228.52,122.14,227.9z"/>
	<path class="st1" d="M122.72,232.37c-1.19-0.58-2.4-0.87-3.64-0.87l-7.49,0.02l0.03,13.43l7.49-0.02c1.25-0.01,2.47-0.31,3.64-0.89
		c2.25-1.13,3.38-3.08,3.37-5.84C126.11,235.43,124.98,233.49,122.72,232.37z"/>
	<path class="st1" d="M191.09,224.78c-1.17-0.22-2.19-0.29-3.04-0.22l-0.05,0l-7.28,0.02l0.05,20.09l7.32-0.02
		c3.68-0.01,6.49-0.92,8.42-2.73c1.81-1.71,2.72-4.15,2.71-7.34c-0.01-3.2-0.92-5.65-2.74-7.35
		C195.11,225.99,193.32,225.17,191.09,224.78z"/>
	<polygon class="st0" points="38.87,241.95 27.07,220.91 27.13,247.78 29.88,247.77 29.84,232.16 38.78,248.22 47.74,231.94 
		47.78,247.73 50.55,247.73 50.46,220.89 	"/>
	<path class="st0" d="M75.17,222.04l0.03,12.58c-0.04,2.85-0.95,5.28-2.73,7.29c-1.76,1.99-3.88,2.99-6.36,3
		c-2.49,0.01-4.62-0.99-6.39-2.99c-1.79-2.01-2.7-4.44-2.74-7.29l-0.03-12.55l-2.61,0.01l0.03,12.55c0.04,3.62,1.2,6.71,3.47,9.26
		c2.3,2.57,5.05,3.85,8.28,3.85c3.21-0.01,5.96-1.3,8.24-3.87c2.26-2.56,3.41-5.65,3.45-9.26l-0.03-12.58L75.17,222.04z"/>
	<polygon class="st0" points="93.44,241.82 81.64,220.78 81.7,247.65 84.44,247.64 84.41,232.03 93.35,248.09 102.3,231.81 
		102.34,247.6 105.12,247.6 105.02,220.76 	"/>
	<path class="st0" d="M124.03,230.03c0.85-0.57,1.27-1.66,1.27-3.28c0-1.71-0.72-3-2.15-3.86c-1.03-0.64-2.18-0.96-3.47-0.96
		l-10.77,0.03l0.06,25.63l1.79,0l8.35-0.02c1.61,0,3.24-0.41,4.88-1.22c3.24-1.57,4.86-4.29,4.85-8.16
		C128.83,234.03,127.23,231.31,124.03,230.03z M111.57,224.68l8.11-0.02c0.57,0,1.11,0.1,1.61,0.31c0.84,0.35,1.26,0.95,1.26,1.79
		c-0.01,0.41-0.15,0.79-0.41,1.14c-0.46,0.62-1.27,0.93-2.43,0.94l-8.13,0.02L111.57,224.68z M122.75,244.03
		c-1.17,0.58-2.39,0.87-3.64,0.89l-7.49,0.02l-0.03-13.43l7.49-0.02c1.24,0,2.46,0.29,3.64,0.87c2.26,1.12,3.39,3.06,3.4,5.83
		C126.12,240.95,125,242.9,122.75,244.03z"/>
	<polygon class="st0" points="146.44,221.38 144.77,224.51 144.77,224.53 132.75,247.53 136.01,247.52 146.44,227.53 157.05,247.47 
		160.22,247.46 148,224.33 	"/>
	
		<rect x="163.68" y="221.84" transform="matrix(1 -2.378273e-03 2.378273e-03 1 -0.5576 0.3931)" class="st0" width="2.68" height="25.61"/>
	<path class="st0" d="M172.24,243.72c-0.55,0-1.02,0.2-1.41,0.59c-0.39,0.39-0.58,0.86-0.58,1.42c0,0.54,0.2,1.01,0.59,1.4
		c0.39,0.39,0.86,0.58,1.42,0.58c0.54,0,1.01-0.2,1.4-0.59c0.39-0.39,0.59-0.86,0.58-1.4c0-0.55-0.2-1.02-0.59-1.41
		C173.24,243.92,172.78,243.72,172.24,243.72z"/>
	<path class="st0" d="M191.96,222.12c-1.05-0.19-2.39-0.29-4.02-0.28l-6.2,0l-3.69,0.01l0.04,25.56l1.81,0l8.08-0.02
		c1.17,0.07,2.46-0.03,3.85-0.3c2.66-0.52,4.83-1.58,6.52-3.16c2.4-2.24,3.59-5.35,3.58-9.35c-0.01-3.99-1.22-7.1-3.63-9.33
		C196.61,223.66,194.49,222.62,191.96,222.12z M196.5,241.92c-1.93,1.81-4.73,2.72-8.42,2.73l-7.32,0.02l-0.05-20.09l7.28-0.02
		l0.05,0c0.85-0.07,1.86,0,3.04,0.22c2.23,0.39,4.02,1.2,5.37,2.45c1.82,1.7,2.74,4.15,2.74,7.35
		C199.21,237.77,198.31,240.22,196.5,241.92z"/>
	
		<rect x="205.8" y="221.74" transform="matrix(1 -2.378273e-03 2.378273e-03 1 -0.5572 0.4933)" class="st0" width="2.68" height="25.61"/>
	<path class="st0" d="M225.58,223.99c2.34-0.01,4.43,0.69,6.27,2.07c1.82,1.37,3.1,3.23,3.85,5.6l2.9-0.01
		c-0.84-3.25-2.44-5.82-4.82-7.69c-2.4-1.88-5.13-2.82-8.2-2.81c-3.66,0.01-6.79,1.31-9.38,3.91c-2.58,2.61-3.87,5.74-3.86,9.4
		c0.01,3.66,1.31,6.79,3.91,9.38c2.61,2.58,5.74,3.87,9.4,3.86c2.92-0.01,5.57-0.9,7.93-2.69c2.3-1.75,3.94-4.19,4.92-7.29
		l-17.62,0.04l0.01,2.73l13.25-0.03c-0.68,1.1-1.79,2.09-3.34,2.99c-1.61,0.95-3.33,1.42-5.16,1.43c-2.89,0.01-5.35-1.01-7.38-3.05
		c-2.05-2.02-3.08-4.47-3.09-7.36c-0.01-2.89,1.01-5.35,3.05-7.39C220.24,225.02,222.69,224,225.58,223.99z"/>
	
		<rect x="242.34" y="221.65" transform="matrix(1 -2.378273e-03 2.378273e-03 1 -0.5569 0.5802)" class="st0" width="2.68" height="25.61"/>
	<polygon class="st0" points="268.34,221.63 248.85,221.68 248.86,224.35 257.25,224.33 257.3,247.23 259.98,247.23 259.92,224.32 
		268.34,224.3 	"/>
	<polygon class="st0" points="285.97,221.05 284.3,224.18 284.3,224.2 272.28,247.2 275.54,247.19 285.97,227.2 296.58,247.14 
		299.75,247.13 287.53,224 	"/>
	<polygon class="st0" points="322.92,244.4 305.91,244.44 305.85,221.52 303.18,221.53 303.24,247.12 322.93,247.08 	"/>
</g>
</svg>
